<?xml version="1.0" encoding="UTF-8" standalone="no"?>
<!DOCTYPE svg PUBLIC "-//W3C//DTD SVG 1.1//EN"
 "http://www.w3.org/Graphics/SVG/1.1/DTD/svg11.dtd">
<!-- Generated by graphviz version 2.40.1 (20161225.0304)
 -->
<!-- Title: G Pages: 1 -->
<svg width="436pt" height="484pt"
 viewBox="0.00 0.00 436.43 483.68" xmlns="http://www.w3.org/2000/svg" xmlns:xlink="http://www.w3.org/1999/xlink">
<g id="graph0" class="graph" transform="scale(1 1) rotate(0) translate(4 479.6762)">
<title>G</title>
<polygon fill="#ffffff" stroke="transparent" points="-4,4 -4,-479.6762 432.4254,-479.6762 432.4254,4 -4,4"/>
<!-- utilities_geopandas_utilities -->
<g id="node1" class="node">
<title>utilities_geopandas_utilities</title>
<ellipse fill="#db2f2f" stroke="#000000" cx="101.4859" cy="-455.8772" rx="71.7128" ry="19.6"/>
<text text-anchor="middle" x="101.4859" y="-457.8772" font-family="Helvetica,sans-Serif" font-size="10.00" fill="#ffffff">utilities.</text>
<text text-anchor="middle" x="101.4859" y="-447.8772" font-family="Helvetica,sans-Serif" font-size="10.00" fill="#ffffff">geopandas_utilities</text>
</g>
<!-- fram -->
<g id="node2" class="node">
<title>utilities</title>
<ellipse fill="#964040" stroke="#000000" cx="249.4859" cy="-18" rx="27" ry="18"/>
<text text-anchor="middle" x="249.4859" y="-15" font-family="Helvetica,sans-Serif" font-size="10.00" fill="#ffffff">utilities</text>
</g>
<!-- utilities_geopandas_utilities&#45;&gt;fram -->
<g id="edge1" class="edge">
<title>utilities_geopandas_utilities&#45;&gt;utilities</title>
<path fill="none" stroke="#000000" d="M1.4859,-260.6102C-15.9635,-141.6538 144.5782,-60.703 216.1493,-30.8128"/>
<polygon fill="#000000" stroke="#000000" points="217.6992,-33.9604 225.6301,-26.9354 215.0493,-27.4813 217.6992,-33.9604"/>
<path fill="none" stroke="#000000" d="M1.4859,-323.9802C5.4724,-296.0993 1.762,-288.7733 1.4859,-260.6102"/>
<path fill="none" stroke="#000000" d="M72.871,-437.5955C40.938,-414.6356 -5.4287,-372.3397 1.4859,-323.9802"/>
</g>
<!-- utilities_kart_plot_types -->
<g id="node8" class="node">
<title>utilities_kart_plot_types</title>
<ellipse fill="#a13535" stroke="#000000" cx="210.4859" cy="-170.8701" rx="43.5957" ry="26.7407"/>
<text text-anchor="middle" x="210.4859" y="-177.8701" font-family="Helvetica,sans-Serif" font-size="10.00" fill="#ffffff">utilities.</text>
<text text-anchor="middle" x="210.4859" y="-167.8701" font-family="Helvetica,sans-Serif" font-size="10.00" fill="#ffffff">kart.</text>
<text text-anchor="middle" x="210.4859" y="-157.8701" font-family="Helvetica,sans-Serif" font-size="10.00" fill="#ffffff">plot_types</text>
</g>
<!-- utilities_geopandas_utilities&#45;&gt;utilities_kart_plot_types -->
<g id="edge17" class="edge">
<title>utilities_geopandas_utilities&#45;&gt;utilities_kart_plot_types</title>
<path fill="none" stroke="#000000" d="M1.4859,-323.9802C4.9283,-300.5126 40.3419,-249.0168 58.4859,-233.7401 87.758,-209.094 128.0311,-193.0239 159.7688,-183.3044"/>
<polygon fill="#000000" stroke="#000000" points="161.1425,-186.5486 169.7485,-180.369 159.1672,-179.8331 161.1425,-186.5486"/>
</g>
<!-- utilities_background_layers -->
<g id="node9" class="node">
<title>utilities_background_layers</title>
<ellipse fill="#c43131" stroke="#000000" cx="323.4859" cy="-380.2792" rx="71.1244" ry="19.6"/>
<text text-anchor="middle" x="323.4859" y="-382.2792" font-family="Helvetica,sans-Serif" font-size="10.00" fill="#ffffff">utilities.</text>
<text text-anchor="middle" x="323.4859" y="-372.2792" font-family="Helvetica,sans-Serif" font-size="10.00" fill="#ffffff">background_layers</text>
</g>
<!-- utilities_geopandas_utilities&#45;&gt;utilities_background_layers -->
<g id="edge12" class="edge">
<title>utilities_geopandas_utilities&#45;&gt;utilities_background_layers</title>
<path fill="none" stroke="#000000" d="M146.9466,-440.3964C182.2302,-428.3812 231.2787,-411.6787 268.7235,-398.9275"/>
<polygon fill="#000000" stroke="#000000" points="270.1279,-402.1467 278.4658,-395.61 267.8714,-395.5204 270.1279,-402.1467"/>
</g>
<!-- utilities_kart_kart -->
<g id="node3" class="node">
<title>utilities_kart_kart</title>
<ellipse fill="#d31717" stroke="#000000" cx="295.4859" cy="-260.6102" rx="34.7843" ry="26.7407"/>
<text text-anchor="middle" x="295.4859" y="-267.6102" font-family="Helvetica,sans-Serif" font-size="10.00" fill="#ffffff">utilities.</text>
<text text-anchor="middle" x="295.4859" y="-257.6102" font-family="Helvetica,sans-Serif" font-size="10.00" fill="#ffffff">kart.</text>
<text text-anchor="middle" x="295.4859" y="-247.6102" font-family="Helvetica,sans-Serif" font-size="10.00" fill="#ffffff">kart</text>
</g>
<!-- utilities_kart_kart&#45;&gt;fram -->
<g id="edge2" class="edge">
<title>utilities_kart_kart&#45;&gt;utilities</title>
<path fill="none" stroke="#000000" d="M315.4859,-90C303.2303,-71.5174 286.2718,-53.1283 272.6139,-39.5607"/>
<polygon fill="#000000" stroke="#000000" points="275.0219,-37.0203 265.4166,-32.5493 270.1373,-42.0343 275.0219,-37.0203"/>
<path fill="none" stroke="#000000" d="M282.4859,-170.8701C279.696,-132.1509 336.9389,-122.3532 315.4859,-90"/>
</g>
<!-- utilities_kart -->
<g id="node6" class="node">
<title>utilities_kart</title>
<ellipse fill="#b03a3a" stroke="#000000" cx="249.4859" cy="-90" rx="38.2275" ry="18"/>
<text text-anchor="middle" x="249.4859" y="-87" font-family="Helvetica,sans-Serif" font-size="10.00" fill="#ffffff">utilities.kart</text>
</g>
<!-- utilities_kart_kart&#45;&gt;utilities_kart -->
<g id="edge7" class="edge">
<title>utilities_kart_kart&#45;&gt;utilities_kart</title>
<path fill="none" stroke="#000000" d="M290.5422,-233.624C287.5449,-215.8642 284.0133,-192.0675 282.4859,-170.8701"/>
<path fill="none" stroke="#000000" d="M282.4859,-170.8701C281.1051,-151.7066 273.0074,-131.7026 265.1799,-116.3842"/>
<polygon fill="#000000" stroke="#000000" points="268.2221,-114.6513 260.4036,-107.5014 262.0568,-117.9664 268.2221,-114.6513"/>
</g>
<!-- utilities_kart_konturplot -->
<g id="node7" class="node">
<title>utilities_kart_konturplot</title>
<ellipse fill="#b03a3a" stroke="#000000" cx="352.4859" cy="-170.8701" rx="42.2345" ry="26.7407"/>
<text text-anchor="middle" x="352.4859" y="-177.8701" font-family="Helvetica,sans-Serif" font-size="10.00" fill="#ffffff">utilities.</text>
<text text-anchor="middle" x="352.4859" y="-167.8701" font-family="Helvetica,sans-Serif" font-size="10.00" fill="#ffffff">kart.</text>
<text text-anchor="middle" x="352.4859" y="-157.8701" font-family="Helvetica,sans-Serif" font-size="10.00" fill="#ffffff">konturplot</text>
</g>
<!-- utilities_kart_kart&#45;&gt;utilities_kart_konturplot -->
<g id="edge16" class="edge">
<title>utilities_kart_kart&#45;&gt;utilities_kart_konturplot</title>
<path fill="none" stroke="#000000" d="M311.0614,-236.0883C317.2418,-226.3579 324.451,-215.0078 331.1066,-204.5293"/>
<polygon fill="#000000" stroke="#000000" points="334.1252,-206.3048 336.5324,-195.987 328.2164,-202.5516 334.1252,-206.3048"/>
</g>
<!-- utilities_kart_kart&#45;&gt;utilities_kart_plot_types -->
<g id="edge18" class="edge">
<title>utilities_kart_kart&#45;&gt;utilities_kart_plot_types</title>
<path fill="none" stroke="#000000" d="M274.9098,-238.8866C264.3309,-227.7177 251.2563,-213.9141 239.656,-201.6668"/>
<polygon fill="#000000" stroke="#000000" points="242.0769,-199.1331 232.6591,-194.2798 236.9948,-203.9469 242.0769,-199.1331"/>
</g>
<!-- utilities_constants -->
<g id="node4" class="node">
<title>utilities_constants</title>
<ellipse fill="#f31616" stroke="#000000" cx="323.4859" cy="-455.8772" rx="41.6598" ry="19.6"/>
<text text-anchor="middle" x="323.4859" y="-457.8772" font-family="Helvetica,sans-Serif" font-size="10.00" fill="#ffffff">utilities.</text>
<text text-anchor="middle" x="323.4859" y="-447.8772" font-family="Helvetica,sans-Serif" font-size="10.00" fill="#ffffff">constants</text>
</g>
<!-- utilities_constants&#45;&gt;fram -->
<g id="edge3" class="edge">
<title>utilities_constants&#45;&gt;utilities</title>
<path fill="none" stroke="#000000" d="M422.4859,-260.6102C410.755,-209.4271 432.7425,-187.6047 403.4859,-144 377.9191,-105.8947 340.8449,-128.2439 315.4859,-90"/>
</g>
<!-- utilities_constants&#45;&gt;utilities_kart_kart -->
<g id="edge10" class="edge">
<title>utilities_constants&#45;&gt;utilities_kart_kart</title>
<path fill="none" stroke="#000000" d="M422.4859,-380.2792C427.4741,-329.9085 319.7273,-374.4576 323.4859,-323.9802"/>
<path fill="none" stroke="#000000" d="M357.8932,-444.6688C385.1779,-433.373 419.2572,-412.8825 422.4859,-380.2792"/>
</g>
<!-- utilities_constants&#45;&gt;utilities_kart_konturplot -->
<g id="edge14" class="edge">
<title>utilities_constants&#45;&gt;utilities_kart_konturplot</title>
<path fill="none" stroke="#000000" d="M422.4859,-260.6102C418.0284,-236.9135 401.9145,-215.417 386.27,-199.4077"/>
<polygon fill="#000000" stroke="#000000" points="388.2829,-196.4817 378.6808,-192.0037 383.3947,-201.4922 388.2829,-196.4817"/>
<path fill="none" stroke="#000000" d="M422.4859,-380.2792C427.7272,-327.3519 432.3182,-312.8797 422.4859,-260.6102"/>
</g>
<!-- utilities_constants&#45;&gt;utilities_kart_plot_types -->
<g id="edge20" class="edge">
<title>utilities_constants&#45;&gt;utilities_kart_plot_types</title>
<path fill="none" stroke="#000000" d="M296.6292,-440.4597C275.9905,-428.0368 249.9502,-410.9116 243.4859,-400.0782 211.5153,-346.4994 203.4649,-318.1931 227.4859,-260.6102"/>
</g>
<!-- utilities_constants&#45;&gt;utilities_background_layers -->
<g id="edge13" class="edge">
<title>utilities_constants&#45;&gt;utilities_background_layers</title>
<path fill="none" stroke="#000000" d="M323.4859,-436.0147C323.4859,-428.1772 323.4859,-419.0003 323.4859,-410.3811"/>
<polygon fill="#000000" stroke="#000000" points="326.986,-410.2715 323.4859,-400.2715 319.986,-410.2716 326.986,-410.2715"/>
</g>
<!-- utilities_geometric_functions -->
<g id="node5" class="node">
<title>utilities_geometric_functions</title>
<ellipse fill="#db2f2f" stroke="#000000" cx="117.4859" cy="-380.2792" rx="74.6886" ry="19.6"/>
<text text-anchor="middle" x="117.4859" y="-382.2792" font-family="Helvetica,sans-Serif" font-size="10.00" fill="#ffffff">utilities.</text>
<text text-anchor="middle" x="117.4859" y="-372.2792" font-family="Helvetica,sans-Serif" font-size="10.00" fill="#ffffff">geometric_functions</text>
</g>
<!-- utilities_geometric_functions&#45;&gt;fram -->
<g id="edge4" class="edge">
<title>utilities_geometric_functions&#45;&gt;utilities</title>
<path fill="none" stroke="#000000" d="M39.4859,-323.9802C38.2325,-291.1641 6.2521,-293.1026 1.4859,-260.6102"/>
<path fill="none" stroke="#000000" d="M71.443,-364.3833C54.9516,-355.5491 40.1934,-342.5044 39.4859,-323.9802"/>
</g>
<!-- utilities_geometric_functions&#45;&gt;utilities_kart_kart -->
<g id="edge11" class="edge">
<title>utilities_geometric_functions&#45;&gt;utilities_kart_kart</title>
<path fill="none" stroke="#000000" d="M323.4859,-323.9802C324.2629,-313.5449 321.278,-302.8835 316.9983,-293.3549"/>
<polygon fill="#000000" stroke="#000000" points="320.026,-291.5867 312.3784,-284.2542 313.7841,-294.7554 320.026,-291.5867"/>
<path fill="none" stroke="#000000" d="M179.6824,-369.1922C239.9201,-357.5792 322.3692,-338.9774 323.4859,-323.9802"/>
</g>
<!-- utilities_geometric_functions&#45;&gt;utilities_kart_plot_types -->
<g id="edge21" class="edge">
<title>utilities_geometric_functions&#45;&gt;utilities_kart_plot_types</title>
<path fill="none" stroke="#000000" d="M39.4859,-323.9802C36.5531,-247.1933 144.3791,-329.8496 208.4859,-287.4802 220.6879,-279.4157 221.8548,-274.1089 227.4859,-260.6102"/>
<path fill="none" stroke="#000000" d="M227.4859,-260.6102C234.6306,-243.483 231.69,-223.2607 226.392,-206.3524"/>
<polygon fill="#000000" stroke="#000000" points="229.6657,-205.1108 223.0587,-196.8285 223.0587,-207.4233 229.6657,-205.1108"/>
</g>
<!-- utilities_kart&#45;&gt;fram -->
<g id="edge5" class="edge">
<title>utilities_kart&#45;&gt;utilities</title>
<path fill="none" stroke="#000000" d="M249.4859,-71.8314C249.4859,-64.131 249.4859,-54.9743 249.4859,-46.4166"/>
<polygon fill="#000000" stroke="#000000" points="252.986,-46.4132 249.4859,-36.4133 245.986,-46.4133 252.986,-46.4132"/>
</g>
<!-- utilities_kart_konturplot&#45;&gt;utilities_kart -->
<g id="edge6" class="edge">
<title>utilities_kart_konturplot&#45;&gt;utilities_kart</title>
<path fill="none" stroke="#000000" d="M325.6927,-149.8335C310.8061,-138.1453 292.3098,-123.623 277.2676,-111.8127"/>
<polygon fill="#000000" stroke="#000000" points="279.3378,-108.9882 269.311,-105.5656 275.015,-114.494 279.3378,-108.9882"/>
</g>
<!-- utilities_kart_plot_types&#45;&gt;utilities_kart -->
<g id="edge8" class="edge">
<title>utilities_kart_plot_types&#45;&gt;utilities_kart</title>
<path fill="none" stroke="#000000" d="M223.0404,-144.8371C227.3575,-135.8852 232.1971,-125.85 236.5444,-116.8354"/>
<polygon fill="#000000" stroke="#000000" points="239.8292,-118.0815 241.0205,-107.5538 233.5241,-115.0408 239.8292,-118.0815"/>
</g>
<!-- utilities_background_layers&#45;&gt;utilities_kart_kart -->
<g id="edge9" class="edge">
<title>utilities_background_layers&#45;&gt;utilities_kart_kart</title>
<path fill="none" stroke="#000000" d="M322.7681,-360.4509C322.5578,-349.6532 322.5859,-336.0667 323.4859,-323.9802"/>
</g>
<!-- utilities_background_layers&#45;&gt;utilities_kart_konturplot -->
<g id="edge15" class="edge">
<title>utilities_background_layers&#45;&gt;utilities_kart_konturplot</title>
<path fill="none" stroke="#000000" d="M329.2677,-360.2879C332.1283,-349.7215 335.4054,-336.4862 337.4859,-324.4802 344.3298,-284.9858 348.2971,-239.1975 350.4129,-207.9561"/>
<polygon fill="#000000" stroke="#000000" points="353.9073,-208.1542 351.0608,-197.9489 346.9219,-207.7018 353.9073,-208.1542"/>
</g>
<!-- utilities_kart_support_modules -->
<g id="node10" class="node">
<title>utilities_kart_support_modules</title>
<ellipse fill="#c24747" stroke="#000000" cx="133.4859" cy="-260.6102" rx="65.6173" ry="26.7407"/>
<text text-anchor="middle" x="133.4859" y="-267.6102" font-family="Helvetica,sans-Serif" font-size="10.00" fill="#ffffff">utilities.</text>
<text text-anchor="middle" x="133.4859" y="-257.6102" font-family="Helvetica,sans-Serif" font-size="10.00" fill="#ffffff">kart.</text>
<text text-anchor="middle" x="133.4859" y="-247.6102" font-family="Helvetica,sans-Serif" font-size="10.00" fill="#ffffff">support_modules</text>
</g>
<!-- utilities_kart_support_modules&#45;&gt;utilities_kart_plot_types -->
<g id="edge19" class="edge">
<title>utilities_kart_support_modules&#45;&gt;utilities_kart_plot_types</title>
<path fill="none" stroke="#000000" d="M155.345,-235.1343C163.9901,-225.0588 174.0214,-213.3678 183.1392,-202.7414"/>
<polygon fill="#000000" stroke="#000000" points="186.04,-204.7356 189.8956,-194.8672 180.7275,-200.1773 186.04,-204.7356"/>
</g>
</g>
</svg>
